# xmcd
#
# Track frame offsets: 
#        150
#        21447
#        41502
#        67395
#        89935
#        110575
#        130475
#        154358
#        172808
#        193355
#
# Disc length: 2939 seconds
#
# Revision: 0
# Processed by: cddbd v1.5PL3 Copyright (c) Steve Scherf et al.
# Submitted via: ExactAudioCopy v0.95a3
#
DISCID=9d0b790a
DTITLE=永邦 - 威尼斯的泪
DYEAR=2002
DGENRE=Pop
TTITLE0=威尼斯的泪
TTITLE1=废墟
TTITLE2=负荷
TTITLE3=赌注
TTITLE4=你是我最深爱的人
TTITLE5=男人泪
TTITLE6=寻情记
TTITLE7=Bum It Up
TTITLE8=野百合也有春天
TTITLE9=Tell Me Baby(DEMO)
EXTD=
EXTT0=
EXTT1=
EXTT2=
EXTT3=
EXTT4=
EXTT5=
EXTT6=
EXTT7=
EXTT8=
EXTT9=
PLAYORDER=
